<?xml version="1.0" standalone="no"?>
<!DOCTYPE svg PUBLIC "-//W3C//DTD SVG 20010904//EN"
 "http://www.w3.org/TR/2001/REC-SVG-20010904/DTD/svg10.dtd">
<svg version="1.0" xmlns="http://www.w3.org/2000/svg"
 width="260.000000pt" height="260.000000pt" viewBox="0 0 260.000000 260.000000"
 preserveAspectRatio="xMidYMid meet">
<metadata>
Created by potrace 1.11, written by Peter Selinger 2001-2013
</metadata>
<g transform="translate(0.000000,260.000000) scale(0.100000,-0.100000)"
fill="#000000" stroke="none">
<path d="M1831 2458 c-45 -79 -88 -154 -96 -168 -18 -31 -148 -259 -183 -320
-14 -25 -50 -88 -80 -140 -30 -52 -66 -115 -80 -140 -14 -25 -84 -148 -157
-275 -72 -126 -136 -239 -142 -250 -7 -11 -28 -48 -48 -82 l-36 -62 144 -253
c79 -139 155 -273 169 -298 14 -25 80 -139 146 -255 l120 -210 301 -3 c165 -1
301 1 301 5 0 5 -8 21 -18 38 -10 17 -34 59 -54 95 -20 36 -68 121 -107 188
-39 68 -71 126 -71 129 0 3 -8 17 -18 31 -11 15 -33 52 -49 82 -17 30 -81 144
-143 254 -96 168 -112 201 -102 217 7 10 201 350 433 756 232 406 430 753 441
771 l20 32 -305 0 -305 0 -81 -142z"/>
<path d="M199 2109 c-5 -3 65 -134 155 -292 l164 -286 -108 -178 c-59 -98
-157 -260 -218 -360 l-110 -181 287 0 287 1 128 211 c70 116 133 220 139 231
7 11 26 42 43 70 17 27 52 85 78 127 l47 78 -36 62 c-19 35 -40 70 -45 78 -5
8 -22 38 -37 65 -15 28 -32 58 -38 67 -31 52 -151 265 -157 281 -4 9 -14 20
-23 23 -20 8 -544 11 -556 3z"/>
</g>
</svg>
